<svg width="79" height="159" viewBox="0 0 79 159" fill="none" xmlns="http://www.w3.org/2000/svg">
<g clip-path="url(#clip0)">
<path d="M3 0H52.3333L77 24.8V96H3V0Z" fill="white"/>
<path d="M53.7245 0H2V96H77V23.3376L53.7245 0ZM54.6596 5.4624L71.5521 22.4H54.6596V5.4624ZM5.19149 92.8V3.2H51.4681V25.6H73.8085V92.8H5.19149Z" fill="#3C6CB5"/>
<path d="M61.3704 35H20.6296C19.7301 35 19 35.6705 19 36.5C19 37.3295 19.7301 38 20.6296 38H61.3704C62.2699 38 63 37.3295 63 36.5C63 35.6705 62.2699 35 61.3704 35Z" fill="#3C6CB5"/>
<path d="M20.6667 26H37.3333C38.2533 26 39 25.106 39 24C39 22.894 38.2533 22 37.3333 22H20.6667C19.7467 22 19 22.894 19 24C19 25.106 19.7467 26 20.6667 26Z" fill="#3C6CB5"/>
<path d="M61.3704 48H20.6296C19.7301 48 19 48.6705 19 49.5C19 50.3295 19.7301 51 20.6296 51H61.3704C62.2699 51 63 50.3295 63 49.5C63 48.6705 62.2699 48 61.3704 48Z" fill="#3C6CB5"/>
<path d="M61.3704 61H20.6296C19.7301 61 19 61.6705 19 62.5C19 63.3295 19.7301 64 20.6296 64H61.3704C62.2699 64 63 63.3295 63 62.5C63 61.6705 62.2699 61 61.3704 61Z" fill="#3C6CB5"/>
<path d="M61.3704 74H20.6296C19.7301 74 19 74.6705 19 75.5C19 76.3295 19.7301 77 20.6296 77H61.3704C62.2699 77 63 76.3295 63 75.5C63 74.6705 62.2699 74 61.3704 74Z" fill="#3C6CB5"/>
<path d="M1.28867 121.8H2.70867V110.24H1.28867V109.04H8.74867C9.36201 109.04 9.92201 109.113 10.4287 109.26C10.9353 109.393 11.3687 109.607 11.7287 109.9C12.102 110.193 12.3887 110.567 12.5887 111.02C12.7887 111.473 12.8887 112.007 12.8887 112.62C12.8887 113.58 12.602 114.373 12.0287 115C11.4553 115.627 10.7153 116.033 9.80867 116.22L12.3287 120.56C12.5953 121.027 12.8753 121.353 13.1687 121.54C13.462 121.713 13.8353 121.8 14.2887 121.8H14.4087V123H12.7087C12.2687 123 11.882 122.967 11.5487 122.9C11.2287 122.82 10.942 122.7 10.6887 122.54C10.4487 122.38 10.2353 122.18 10.0487 121.94C9.86201 121.7 9.68201 121.42 9.50867 121.1L7.26867 116.74H5.50867V121.8H6.92867V123H1.28867V121.8ZM5.50867 115.5H7.84867C8.55534 115.5 9.08867 115.327 9.44867 114.98C9.82201 114.633 10.0087 114.133 10.0087 113.48V112.36C10.0087 111.707 9.82201 111.207 9.44867 110.86C9.08867 110.513 8.55534 110.34 7.84867 110.34H5.50867V115.5ZM20.0559 123.24C19.2559 123.24 18.5425 123.107 17.9159 122.84C17.3025 122.573 16.7825 122.2 16.3559 121.72C15.9292 121.227 15.6025 120.647 15.3759 119.98C15.1625 119.3 15.0559 118.56 15.0559 117.76C15.0559 116.933 15.1692 116.187 15.3959 115.52C15.6359 114.84 15.9692 114.267 16.3959 113.8C16.8225 113.32 17.3292 112.953 17.9159 112.7C18.5159 112.447 19.1759 112.32 19.8959 112.32C20.6159 112.32 21.2625 112.44 21.8359 112.68C22.4225 112.907 22.9159 113.233 23.3159 113.66C23.7292 114.087 24.0425 114.6 24.2559 115.2C24.4825 115.787 24.5959 116.447 24.5959 117.18V117.8H17.8759V118.52C17.8759 119.48 18.1225 120.22 18.6159 120.74C19.1225 121.247 19.7825 121.5 20.5959 121.5C21.3425 121.5 21.9425 121.333 22.3959 121C22.8492 120.667 23.1825 120.253 23.3959 119.76L24.3759 120.36C24.2559 120.693 24.0759 121.033 23.8359 121.38C23.6092 121.713 23.3159 122.02 22.9559 122.3C22.6092 122.58 22.1959 122.807 21.7159 122.98C21.2359 123.153 20.6825 123.24 20.0559 123.24ZM17.8759 116.64H21.8759V116.38C21.8759 115.42 21.7025 114.713 21.3559 114.26C21.0225 113.807 20.5359 113.58 19.8959 113.58C19.2559 113.58 18.7559 113.807 18.3959 114.26C18.0492 114.7 17.8759 115.4 17.8759 116.36V116.64ZM30.5691 123.24C29.8625 123.24 29.3025 123.107 28.8891 122.84C28.4758 122.573 28.2158 122.273 28.1091 121.94H28.0291V123H26.3091V119.88H28.0291V120.24C28.0291 120.773 28.1958 121.187 28.5291 121.48C28.8625 121.773 29.4025 121.92 30.1491 121.92C31.4825 121.92 32.1491 121.467 32.1491 120.56C32.1491 120.187 32.0291 119.893 31.7891 119.68C31.5491 119.453 31.1758 119.273 30.6691 119.14L29.6691 118.88C28.5625 118.587 27.7358 118.18 27.1891 117.66C26.6558 117.127 26.3891 116.407 26.3891 115.5C26.3891 114.487 26.7225 113.707 27.3891 113.16C28.0558 112.6 28.9491 112.32 30.0691 112.32C30.7491 112.32 31.2825 112.447 31.6691 112.7C32.0691 112.94 32.3225 113.227 32.4291 113.56H32.5091V112.56H34.2291V115.68H32.5091V115.2C32.5091 114.693 32.3425 114.307 32.0091 114.04C31.6758 113.773 31.1491 113.64 30.4291 113.64C29.2825 113.64 28.7091 114.06 28.7091 114.9C28.7091 115.287 28.8225 115.6 29.0491 115.84C29.2891 116.08 29.6891 116.267 30.2491 116.4L31.1891 116.62C32.2825 116.887 33.1091 117.267 33.6691 117.76C34.2291 118.253 34.5091 118.987 34.5091 119.96C34.5091 120.987 34.1491 121.793 33.4291 122.38C32.7225 122.953 31.7691 123.24 30.5691 123.24ZM40.6882 123.24C39.4215 123.24 38.5215 122.92 37.9882 122.28C37.4549 121.627 37.1882 120.653 37.1882 119.36V114.38L35.9082 114.12V113.12L39.8082 112.32V119.24C39.8082 120.027 39.9549 120.6 40.2482 120.96C40.5415 121.307 41.0149 121.48 41.6682 121.48C41.9215 121.48 42.1682 121.447 42.4082 121.38C42.6482 121.313 42.8615 121.213 43.0482 121.08C43.2482 120.933 43.4082 120.753 43.5282 120.54C43.6482 120.327 43.7082 120.073 43.7082 119.78V114.38L42.4082 114.12V113.12L46.3282 112.32V121.18L47.6082 121.44V122.44L43.7482 123.24V121.3H43.6482C43.5549 121.553 43.4215 121.8 43.2482 122.04C43.0882 122.267 42.8815 122.473 42.6282 122.66C42.3882 122.833 42.1082 122.973 41.7882 123.08C41.4682 123.187 41.1015 123.24 40.6882 123.24ZM49.0212 121.8H50.3012V114.38L49.0212 114.12V113.12L52.8812 112.32V114.26H52.9812C53.0745 114.007 53.2012 113.767 53.3612 113.54C53.5345 113.3 53.7412 113.093 53.9812 112.92C54.2212 112.733 54.5012 112.587 54.8212 112.48C55.1545 112.373 55.5278 112.32 55.9412 112.32C56.8212 112.32 57.5078 112.487 58.0012 112.82C58.4945 113.153 58.8345 113.653 59.0212 114.32H59.1012C59.2078 114.067 59.3478 113.82 59.5212 113.58C59.7078 113.34 59.9278 113.127 60.1812 112.94C60.4478 112.753 60.7478 112.607 61.0812 112.5C61.4278 112.38 61.8212 112.32 62.2612 112.32C63.4878 112.32 64.3545 112.647 64.8612 113.3C65.3812 113.94 65.6412 114.907 65.6412 116.2V121.8H66.9212V123H61.8612V121.8H63.0212V116.32C63.0212 115.533 62.8812 114.967 62.6012 114.62C62.3212 114.26 61.8612 114.08 61.2212 114.08C60.9812 114.08 60.7412 114.113 60.5012 114.18C60.2745 114.247 60.0678 114.353 59.8812 114.5C59.7078 114.633 59.5612 114.813 59.4412 115.04C59.3345 115.253 59.2812 115.507 59.2812 115.8V121.8H60.4412V123H55.5012V121.8H56.6612V116.32C56.6612 115.533 56.5212 114.967 56.2412 114.62C55.9745 114.26 55.5278 114.08 54.9012 114.08C54.6478 114.08 54.4012 114.113 54.1612 114.18C53.9212 114.247 53.7078 114.353 53.5212 114.5C53.3478 114.633 53.2012 114.813 53.0812 115.04C52.9745 115.253 52.9212 115.507 52.9212 115.8V121.8H54.0812V123H49.0212V121.8ZM73.298 123.24C72.498 123.24 71.7847 123.107 71.158 122.84C70.5447 122.573 70.0247 122.2 69.598 121.72C69.1714 121.227 68.8447 120.647 68.618 119.98C68.4047 119.3 68.298 118.56 68.298 117.76C68.298 116.933 68.4114 116.187 68.638 115.52C68.878 114.84 69.2114 114.267 69.638 113.8C70.0647 113.32 70.5714 112.953 71.158 112.7C71.758 112.447 72.418 112.32 73.138 112.32C73.858 112.32 74.5047 112.44 75.078 112.68C75.6647 112.907 76.158 113.233 76.558 113.66C76.9714 114.087 77.2847 114.6 77.498 115.2C77.7247 115.787 77.838 116.447 77.838 117.18V117.8H71.118V118.52C71.118 119.48 71.3647 120.22 71.858 120.74C72.3647 121.247 73.0247 121.5 73.838 121.5C74.5847 121.5 75.1847 121.333 75.638 121C76.0914 120.667 76.4247 120.253 76.638 119.76L77.618 120.36C77.498 120.693 77.318 121.033 77.078 121.38C76.8514 121.713 76.558 122.02 76.198 122.3C75.8514 122.58 75.438 122.807 74.958 122.98C74.478 123.153 73.9247 123.24 73.298 123.24ZM71.118 116.64H75.118V116.38C75.118 115.42 74.9447 114.713 74.598 114.26C74.2647 113.807 73.778 113.58 73.138 113.58C72.498 113.58 71.998 113.807 71.638 114.26C71.2914 114.7 71.118 115.4 71.118 116.36V116.64Z" fill="#3C6CB5"/>
</g>
<defs>
<clipPath id="clip0">
<rect width="79" height="159" fill="white"/>
</clipPath>
</defs>
</svg>
