<svg width="112" height="127" viewBox="0 0 112 127" fill="none" xmlns="http://www.w3.org/2000/svg">
<g clip-path="url(#clip0)">
<path d="M24.1766 0C19.811 0 16.2391 3.57187 16.2391 7.9375V119.062C16.2391 123.428 19.811 127 24.1766 127H103.552C107.917 127 111.489 123.428 111.489 119.062V31.75L79.7391 0H24.1766Z" fill="#E2E5E7"/>
<path d="M87.6765 31.75H111.489L79.739 0V23.8125C79.739 28.1781 83.3109 31.75 87.6765 31.75Z" fill="#B0B7BD"/>
<path d="M111.489 55.5625L87.6765 31.75H111.489V55.5625Z" fill="#CAD1D8"/>
<path d="M95.614 103.188C95.614 105.37 93.8281 107.156 91.6453 107.156H4.33288C2.15007 107.156 0.364136 105.37 0.364136 103.188V63.5C0.364136 61.3172 2.15007 59.5312 4.33288 59.5312H91.6453C93.8281 59.5312 95.614 61.3172 95.614 63.5V103.188Z" fill="#F15642"/>
<path d="M17.6638 75.1959C17.6638 74.1481 18.4893 73.0051 19.8188 73.0051H27.1491C31.2766 73.0051 34.9914 75.7674 34.9914 81.0617C34.9914 86.0782 31.2766 88.8722 27.1491 88.8722H21.8508V93.0632C21.8508 94.4602 20.9618 95.25 19.8188 95.25C18.7711 95.25 17.6638 94.4602 17.6638 93.0632V75.1959V75.1959ZM21.8508 77.0017V84.9074H27.1491C29.2764 84.9074 30.9591 83.0302 30.9591 81.0617C30.9591 78.8432 29.2764 77.0017 27.1491 77.0017H21.8508Z" fill="white"/>
<path d="M41.2064 95.25C40.1586 95.25 39.0156 94.6785 39.0156 93.2854V75.2594C39.0156 74.1204 40.1586 73.2909 41.2064 73.2909H48.4732C62.975 73.2909 62.6575 95.25 48.7589 95.25H41.2064V95.25ZM43.2066 77.1644V91.3804H48.4732C57.0417 91.3804 57.4227 77.1644 48.4732 77.1644H43.2066V77.1644Z" fill="white"/>
<path d="M67.801 77.4184V82.4627H75.8932C77.0362 82.4627 78.1792 83.6057 78.1792 84.7129C78.1792 85.7607 77.0362 86.618 75.8932 86.618H67.801V93.2815C67.801 94.3927 67.0112 95.246 65.8999 95.246C64.5029 95.246 63.6497 94.3927 63.6497 93.2815V75.2554C63.6497 74.1164 64.5069 73.2869 65.8999 73.2869H77.0402C78.4372 73.2869 79.2626 74.1164 79.2626 75.2554C79.2626 76.2714 78.4372 77.4144 77.0402 77.4144H67.801V77.4184Z" fill="white"/>
<path d="M91.6453 107.156H16.2391V111.125H91.6453C93.8281 111.125 95.614 109.339 95.614 107.156V103.188C95.614 105.37 93.8281 107.156 91.6453 107.156Z" fill="#CAD1D8"/>
</g>
<defs>
<clipPath id="clip0">
<rect width="111.853" height="127" fill="white"/>
</clipPath>
</defs>
</svg>
