<svg width="106" height="106" viewBox="0 0 106 106" fill="none" xmlns="http://www.w3.org/2000/svg">
<path d="M53 1.32495C23.85 1.32495 0 25.175 0 54.3249C0 77.7333 15.0167 97.6083 36.2167 104.675C38.8667 105.117 39.75 103.35 39.75 102.025C39.75 100.7 39.75 97.6083 39.75 93.1916C25.175 96.2833 22.0833 86.125 22.0833 86.125C19.875 79.9416 16.3417 78.175 16.3417 78.175C11.0417 75.0833 16.3417 75.0833 16.3417 75.0833C21.6417 75.525 24.2917 80.3833 24.2917 80.3833C29.15 88.3333 36.6583 86.125 39.75 84.8C40.1917 81.2666 41.5167 79.0583 43.2833 77.7333C31.3583 76.4083 18.9917 71.9916 18.9917 51.6749C18.9917 45.9333 21.2 41.0749 24.2917 37.5416C23.85 35.7749 22.0833 30.475 25.175 23.4083C25.175 23.4083 29.5917 22.0833 39.75 28.7083C44.1667 27.3833 48.5833 26.9416 53 26.9416C57.4167 26.9416 61.8333 27.3833 66.25 28.7083C76.4083 21.6416 80.825 23.4083 80.825 23.4083C83.475 30.9166 81.7083 36.2166 81.2667 37.5416C84.8 41.0749 86.5667 45.9333 86.5667 51.6749C86.5667 71.9916 74.2 76.4083 62.275 77.7333C64.0417 79.5 65.8083 82.5916 65.8083 87.4499C65.8083 94.5166 65.8083 100.258 65.8083 102.025C65.8083 103.35 66.6917 105.117 69.3417 104.675C90.5417 97.6083 105.558 77.7333 105.558 54.3249C106 25.175 82.15 1.32495 53 1.32495Z" fill="#B7B7B7"/>
</svg>
