<svg width="106" height="106" viewBox="0 0 106 106" fill="none" xmlns="http://www.w3.org/2000/svg">
<g clip-path="url(#clip0)">
<path d="M90.1 90.5417H74.2V65.8083C74.2 60.0667 74.2 52.5583 65.8083 52.5583C57.4167 52.5583 56.5333 58.7417 56.5333 65.3667V90.5417H41.5167V39.75H56.5333V46.8167C58.7417 42.8417 63.6 38.425 71.55 38.425C87.45 38.425 90.5417 49.025 90.5417 62.7167L90.1 90.5417ZM23.4083 32.6833C18.55 32.6833 14.1333 28.7083 14.1333 23.4083C14.1333 18.55 18.1083 14.1333 23.4083 14.1333C28.2667 14.1333 32.6833 18.1083 32.6833 23.4083C32.6833 28.7083 28.7083 32.6833 23.4083 32.6833ZM31.3583 90.5417H15.9V39.75H31.8V90.5417H31.3583ZM98.05 0H7.95C3.53333 0 0 3.53333 0 7.50833V98.05C0 102.467 3.53333 105.558 7.95 105.558H98.4917C102.908 105.558 106.442 102.025 106.442 98.05V7.50833C106 3.53333 102.467 0 98.05 0Z" fill="#B7B7B7"/>
</g>
<defs>
<clipPath id="clip0">
<rect width="106" height="106" fill="white"/>
</clipPath>
</defs>
</svg>
