<svg width="137" height="70" viewBox="0 0 137 70" fill="none" xmlns="http://www.w3.org/2000/svg">
<g clip-path="url(#clip0)">
<g filter="url(#filter0_i)">
<path d="M8.74467e-07 35C3.91512e-07 15.67 15.67 -3.91512e-07 35 -8.74467e-07L101.5 -2.53595e-06C120.83 -3.01891e-06 136.5 15.67 136.5 35C136.5 54.33 120.83 70 101.5 70L35 70C15.67 70 1.35742e-06 54.33 8.74467e-07 35Z" fill="#292525"/>
</g>
<path d="M0.500001 35C0.5 15.9462 15.9462 0.5 35 0.499999L101.5 0.499997C120.554 0.499997 136 15.9462 136 35C136 54.0538 120.554 69.5 101.5 69.5L35 69.5C15.9462 69.5 0.500001 54.0538 0.500001 35Z" stroke="#292525"/>
<g filter="url(#filter1_d)">
<mask id="path-3-inside-1" fill="white">
<path fill-rule="evenodd" clip-rule="evenodd" d="M92 51C104.703 51 115 40.9264 115 28.5C115 18.4067 108.206 9.86568 98.8483 7.01424C99.1477 7.00477 99.4483 7 99.75 7C115.214 7 127.75 19.536 127.75 35C127.75 50.464 115.214 63 99.75 63C85.9665 63 74.5092 53.0406 72.1818 39.9254C76.1835 46.5538 83.5609 51 92 51Z"/>
</mask>
<path fill-rule="evenodd" clip-rule="evenodd" d="M92 51C104.703 51 115 40.9264 115 28.5C115 18.4067 108.206 9.86568 98.8483 7.01424C99.1477 7.00477 99.4483 7 99.75 7C115.214 7 127.75 19.536 127.75 35C127.75 50.464 115.214 63 99.75 63C85.9665 63 74.5092 53.0406 72.1818 39.9254C76.1835 46.5538 83.5609 51 92 51Z" fill="#FEFFB7"/>
<path d="M98.8483 7.01424L98.8167 6.01474L98.5568 7.97082L98.8483 7.01424ZM72.1818 39.9254L73.0378 39.4086L71.1971 40.1002L72.1818 39.9254ZM114 28.5C114 40.3535 104.171 50 92 50V52C105.234 52 116 41.4993 116 28.5H114ZM98.5568 7.97082C107.518 10.7013 114 18.8714 114 28.5H116C116 17.9421 108.895 9.03004 99.1398 6.05767L98.5568 7.97082ZM98.8799 8.01374C99.1688 8.0046 99.4588 8 99.75 8V6C99.4377 6 99.1266 6.00494 98.8167 6.01474L98.8799 8.01374ZM99.75 8C114.662 8 126.75 20.0883 126.75 35H128.75C128.75 18.9837 115.766 6 99.75 6V8ZM126.75 35C126.75 49.9117 114.662 62 99.75 62V64C115.766 64 128.75 51.0163 128.75 35H126.75ZM99.75 62C86.4598 62 75.4105 52.3968 73.1664 39.7507L71.1971 40.1002C73.6078 53.6844 85.4732 64 99.75 64V62ZM92 50C83.9185 50 76.8623 45.7434 73.0378 39.4086L71.3257 40.4423C75.5046 47.3643 83.2034 52 92 52V50Z" fill="#BA9B48" mask="url(#path-3-inside-1)"/>
</g>
</g>
<defs>
<filter id="filter0_i" x="0" y="0" width="136.5" height="71" filterUnits="userSpaceOnUse" color-interpolation-filters="sRGB">
<feFlood flood-opacity="0" result="BackgroundImageFix"/>
<feBlend mode="normal" in="SourceGraphic" in2="BackgroundImageFix" result="shape"/>
<feColorMatrix in="SourceAlpha" type="matrix" values="0 0 0 0 0 0 0 0 0 0 0 0 0 0 0 0 0 0 127 0" result="hardAlpha"/>
<feOffset dy="1"/>
<feGaussianBlur stdDeviation="5"/>
<feComposite in2="hardAlpha" operator="arithmetic" k2="-1" k3="1"/>
<feColorMatrix type="matrix" values="0 0 0 0 0.741667 0 0 0 0 0.741667 0 0 0 0 0.741667 0 0 0 1 0"/>
<feBlend mode="normal" in2="shape" result="effect1_innerShadow"/>
</filter>
<filter id="filter1_d" x="66.1818" y="3" width="63.5682" height="64" filterUnits="userSpaceOnUse" color-interpolation-filters="sRGB">
<feFlood flood-opacity="0" result="BackgroundImageFix"/>
<feColorMatrix in="SourceAlpha" type="matrix" values="0 0 0 0 0 0 0 0 0 0 0 0 0 0 0 0 0 0 127 0"/>
<feOffset dx="-2"/>
<feGaussianBlur stdDeviation="2"/>
<feColorMatrix type="matrix" values="0 0 0 0 0.729412 0 0 0 0 0.607843 0 0 0 0 0.282353 0 0 0 1 0"/>
<feBlend mode="normal" in2="BackgroundImageFix" result="effect1_dropShadow"/>
<feBlend mode="normal" in="SourceGraphic" in2="effect1_dropShadow" result="shape"/>
</filter>
<clipPath id="clip0">
<rect width="137" height="70" fill="white" transform="translate(137 70) rotate(-180)"/>
</clipPath>
</defs>
</svg>
