<svg width="100" height="50" viewBox="0 0 100 50" fill="none" xmlns="http://www.w3.org/2000/svg">
<g clip-path="url(#clip0)">
<g filter="url(#filter0_i)">
<path d="M6.24619e-07 25C2.79652e-07 11.1929 11.4799 -2.86822e-07 25.641 -6.40635e-07L74.359 -1.85784e-06C88.5201 -2.21165e-06 100 11.1929 100 25C100 38.8071 88.5201 50 74.359 50L25.641 50C11.4799 50 9.69587e-07 38.8071 6.24619e-07 25Z" fill="#292525"/>
</g>
<path d="M25.641 0.499999L74.359 0.499998C88.256 0.499998 99.5 11.4809 99.5 25C99.5 38.5191 88.256 49.5 74.359 49.5L25.641 49.5C11.744 49.5 0.500001 38.5191 0.500001 25C0.5 11.4809 11.744 0.5 25.641 0.499999Z" stroke="#292525"/>
<g filter="url(#filter1_d)">
<mask id="path-3-inside-1" fill="white">
<path fill-rule="evenodd" clip-rule="evenodd" d="M68.4731 35.1382C76.5658 35.1382 83.1262 28.7204 83.1262 20.8037C83.1262 14.3733 78.798 8.93188 72.836 7.11528C73.0268 7.10924 73.2183 7.1062 73.4106 7.1062C83.2625 7.1062 91.2491 15.0928 91.2491 24.9447C91.2491 34.7967 83.2625 42.7832 73.4106 42.7832C64.6293 42.7832 57.33 36.4382 55.8472 28.0827C58.3966 32.3056 63.0967 35.1382 68.4731 35.1382Z"/>
</mask>
<path fill-rule="evenodd" clip-rule="evenodd" d="M68.4731 35.1382C76.5658 35.1382 83.1262 28.7204 83.1262 20.8037C83.1262 14.3733 78.798 8.93188 72.836 7.11528C73.0268 7.10924 73.2183 7.1062 73.4106 7.1062C83.2625 7.1062 91.2491 15.0928 91.2491 24.9447C91.2491 34.7967 83.2625 42.7832 73.4106 42.7832C64.6293 42.7832 57.33 36.4382 55.8472 28.0827C58.3966 32.3056 63.0967 35.1382 68.4731 35.1382Z" fill="#FEFFB7"/>
<path d="M72.836 7.11528L72.8044 6.11578L72.5446 8.07186L72.836 7.11528ZM73.4106 7.1062L73.4106 8.1062H73.4106L73.4106 7.1062ZM91.2491 24.9447L92.2491 24.9447L92.2491 24.9447L91.2491 24.9447ZM55.8472 28.0827L56.7033 27.5659L54.8626 28.2575L55.8472 28.0827ZM82.1262 20.8037C82.1262 28.1475 76.0343 34.1382 68.4731 34.1382V36.1382C77.0972 36.1382 84.1262 29.2933 84.1262 20.8037H82.1262ZM72.5446 8.07186C78.1096 9.76753 82.1262 14.8379 82.1262 20.8037H84.1262C84.1262 13.9087 79.4863 8.09623 73.1275 6.1587L72.5446 8.07186ZM72.8677 8.11478C73.0479 8.10908 73.2289 8.1062 73.4106 8.1062V6.1062C73.2078 6.1062 73.0057 6.10941 72.8044 6.11578L72.8677 8.11478ZM73.4106 8.1062C82.7102 8.1062 90.2491 15.6451 90.2491 24.9447L92.2491 24.9447C92.2491 14.5405 83.8148 6.1062 73.4106 6.1062L73.4106 8.1062ZM90.2491 24.9447C90.2491 34.2444 82.7102 41.7832 73.4106 41.7832V43.7832C83.8148 43.7832 92.2491 35.349 92.2491 24.9447H90.2491ZM73.4106 41.7832C65.1226 41.7832 58.2313 35.7944 56.8318 27.908L54.8626 28.2575C56.4286 37.082 64.136 43.7832 73.4106 43.7832V41.7832ZM68.4731 34.1382C63.4543 34.1382 59.0755 31.4952 56.7033 27.5659L54.9911 28.5996C57.7178 33.116 62.7391 36.1382 68.4731 36.1382V34.1382Z" fill="#BA9B48" mask="url(#path-3-inside-1)"/>
</g>
</g>
<defs>
<filter id="filter0_i" x="0" y="0" width="100" height="51" filterUnits="userSpaceOnUse" color-interpolation-filters="sRGB">
<feFlood flood-opacity="0" result="BackgroundImageFix"/>
<feBlend mode="normal" in="SourceGraphic" in2="BackgroundImageFix" result="shape"/>
<feColorMatrix in="SourceAlpha" type="matrix" values="0 0 0 0 0 0 0 0 0 0 0 0 0 0 0 0 0 0 127 0" result="hardAlpha"/>
<feOffset dy="1"/>
<feGaussianBlur stdDeviation="5"/>
<feComposite in2="hardAlpha" operator="arithmetic" k2="-1" k3="1"/>
<feColorMatrix type="matrix" values="0 0 0 0 0.741667 0 0 0 0 0.741667 0 0 0 0 0.741667 0 0 0 1 0"/>
<feBlend mode="normal" in2="shape" result="effect1_innerShadow"/>
</filter>
<filter id="filter1_d" x="49.8472" y="3.1062" width="43.4019" height="43.677" filterUnits="userSpaceOnUse" color-interpolation-filters="sRGB">
<feFlood flood-opacity="0" result="BackgroundImageFix"/>
<feColorMatrix in="SourceAlpha" type="matrix" values="0 0 0 0 0 0 0 0 0 0 0 0 0 0 0 0 0 0 127 0"/>
<feOffset dx="-2"/>
<feGaussianBlur stdDeviation="2"/>
<feColorMatrix type="matrix" values="0 0 0 0 0.729412 0 0 0 0 0.607843 0 0 0 0 0.282353 0 0 0 1 0"/>
<feBlend mode="normal" in2="BackgroundImageFix" result="effect1_dropShadow"/>
<feBlend mode="normal" in="SourceGraphic" in2="effect1_dropShadow" result="shape"/>
</filter>
<clipPath id="clip0">
<rect width="100" height="50" fill="white" transform="translate(100 50) rotate(-180)"/>
</clipPath>
</defs>
</svg>
