<svg width="137" height="70" viewBox="0 0 137 70" fill="none" xmlns="http://www.w3.org/2000/svg">
<g clip-path="url(#clip0)">
<path d="M102 69.4999L35.5 69.4999C16.4462 69.4999 1 54.0537 1 34.9999C1 15.946 16.4462 0.49987 35.5 0.499872L102 0.499876C121.054 0.499877 136.5 15.9461 136.5 34.9999C136.5 54.0537 121.054 69.4999 102 69.4999Z" fill="#292525" stroke="#E5E5E5"/>
<path d="M9.25 34.9999C9.25 19.5359 21.786 6.99988 37.25 6.99988C52.714 6.99988 65.25 19.5359 65.25 34.9999C65.25 50.4639 52.714 62.9999 37.25 62.9999C21.786 62.9999 9.25 50.4638 9.25 34.9999Z" fill="#E5E5E5"/>
</g>
<defs>
<clipPath id="clip0">
<rect width="137" height="70.0001" fill="white" transform="translate(137 70) rotate(-180)"/>
</clipPath>
</defs>
</svg>
