<svg width="100" height="50" viewBox="0 0 100 50" fill="none" xmlns="http://www.w3.org/2000/svg">
<g clip-path="url(#clip0)">
<g filter="url(#filter0_i)">
<path d="M6.24619e-07 25C2.79652e-07 11.1929 11.4799 -2.86822e-07 25.641 -6.40635e-07L74.359 -1.85784e-06C88.5201 -2.21166e-06 100 11.1929 100 25V25C100 38.8071 88.5201 50 74.359 50L25.641 50C11.4799 50 9.69587e-07 38.8071 6.24619e-07 25V25Z" fill="#E5E5E5"/>
</g>
<path d="M25.641 0.499999L74.359 0.499998C88.256 0.499998 99.5 11.4809 99.5 25C99.5 38.5191 88.256 49.5 74.359 49.5L25.641 49.5C11.744 49.5 0.500001 38.5191 0.500001 25C0.5 11.4809 11.744 0.5 25.641 0.499999Z" stroke="#292525"/>
<g filter="url(#filter1_d)">
<path d="M23.0609 39.5546L22.9287 39.5317C22.0988 39.3851 21.2674 39.1618 20.4573 38.8676L20.3315 38.8223L15.7086 41.8746L16.0395 36.3557L15.9377 36.2694C15.2811 35.7162 14.6693 35.1043 14.1198 34.4509L14.0335 34.3486L8.51405 34.6795L11.5664 30.0571L11.52 29.9308C11.2258 29.1191 11.0025 28.2877 10.8564 27.4594L10.833 27.3273L5.88013 24.8511L10.833 22.3744L10.8564 22.2422C11.0025 21.414 11.2258 20.5826 11.52 19.7709L11.5658 19.6451L8.51405 15.0227L14.0329 15.3542L14.1193 15.2518C14.6693 14.5974 15.2811 13.986 15.9372 13.4334L16.039 13.347L15.7086 7.8276L20.3315 10.8799L20.4573 10.8346C21.2674 10.5404 22.0988 10.3171 22.9287 10.1705L23.0609 10.1476L25.537 5.19421L28.0132 10.1471L28.1454 10.17C28.9752 10.3166 29.8066 10.5399 30.6167 10.8341L30.7425 10.8794L35.3655 7.82707L35.0345 13.347L35.1363 13.4334C35.7924 13.9855 36.4042 14.5974 36.9542 15.2518L37.0406 15.3542L42.5594 15.0227L39.5071 19.6451L39.553 19.7709C39.8472 20.582 40.0705 21.414 40.2165 22.2422L40.24 22.3744L45.1939 24.8511L40.241 27.3278L40.2176 27.46C40.0716 28.2877 39.8482 29.1191 39.554 29.9313L39.5082 30.0571L42.5605 34.6795L37.0416 34.348L36.9553 34.4504C36.4058 35.1038 35.794 35.7156 35.1373 36.2689L35.0356 36.3552L35.3665 41.8741L30.7436 38.8218L30.6178 38.8671C29.8077 39.1613 28.9763 39.3846 28.1464 39.5311L28.0142 39.5541L25.537 44.508L23.0609 39.5546Z" fill="#FEFFB7"/>
<path d="M25.8719 5.45551L28.0501 9.81198L28.17 10.0518L28.4339 10.0987C29.2488 10.2426 30.0653 10.4617 30.861 10.7505L31.1126 10.8417L31.3359 10.694L35.4019 8.00949L35.1103 12.8632L35.0944 13.1308L35.299 13.3029C35.9423 13.8444 36.543 14.4451 37.085 15.0889L37.2571 15.2935L37.5241 15.2776L42.3779 14.986L39.6933 19.052L39.5457 19.2753L39.6368 19.5274C39.9252 20.3232 40.1447 21.1397 40.2886 21.954L40.3355 22.2179L40.5754 22.3378L44.9329 24.5165L40.5764 26.6948L40.3366 26.8147L40.2897 27.0785C40.1458 27.8929 39.9268 28.7094 39.6379 29.5051L39.5468 29.7572L39.6944 29.9805L42.3789 34.0465L37.5252 33.755L37.2577 33.739L37.0855 33.9437C36.5446 34.587 35.9434 35.1876 35.2995 35.7296L35.0949 35.9023L35.1109 36.1693L35.4024 41.0231L31.3364 38.3385L31.1131 38.1909L30.861 38.282C30.0653 38.5704 29.2488 38.7899 28.4339 38.9338L28.17 38.9807L28.0501 39.2206L25.8719 43.5776L23.6936 39.2211L23.5737 38.9813L23.3099 38.9344C22.495 38.7905 21.6785 38.5709 20.8828 38.2825L20.6307 38.1914L20.4074 38.339L16.3414 41.0236L16.6329 36.1699L16.6489 35.9028L16.4442 35.7302C15.8004 35.1881 15.1992 34.587 14.6583 33.9442L14.4861 33.7395L14.2186 33.7555L9.36483 34.0471L12.0494 29.9811L12.197 29.7577L12.1059 29.5056C11.8175 28.7099 11.598 27.8934 11.4541 27.079L11.4072 26.8152L11.1673 26.6953L6.81085 24.5165L11.1673 22.3383L11.4072 22.2184L11.4541 21.9546C11.598 21.1397 11.817 20.3232 12.1059 19.528L12.197 19.2759L12.0494 19.0526L9.36483 14.9866L14.2186 15.2781L14.4856 15.2941L14.6577 15.0894C15.1992 14.4456 15.8004 13.8449 16.4437 13.3034L16.6484 13.1313L16.6324 12.8637L16.3408 8.01002L20.4068 10.6946L20.6302 10.8422L20.8817 10.7511C21.6774 10.4627 22.4939 10.2432 23.3088 10.0993L23.5727 10.0523L23.6926 9.81251L25.8719 5.45551ZM25.8719 4.26379L23.2172 9.57374C22.35 9.72671 21.5112 9.95588 20.701 10.2495L15.7455 6.97713L16.101 12.8947C15.4321 13.4575 14.8134 14.0763 14.2505 14.7451L8.33248 14.3902L11.6044 19.3457C11.3107 20.1553 11.0821 20.9942 10.9286 21.8618L5.61914 24.5165L10.9291 27.1712C11.0821 28.0384 11.3107 28.8773 11.6049 29.6869L8.33248 34.6429L14.25 34.288C14.8128 34.9568 15.4321 35.5756 16.1005 36.1384L15.7455 42.056L20.701 38.7841C21.5106 39.0777 22.35 39.3064 23.2172 39.4599L25.8719 44.7693L28.5266 39.4593C29.3937 39.3064 30.2326 39.0772 31.0427 38.7835L35.9983 42.056L35.6428 36.1384C36.3116 35.5756 36.9304 34.9568 37.4932 34.288L43.4113 34.6429L40.1394 29.6874C40.4331 28.8778 40.6617 28.0389 40.8152 27.1718L46.1246 24.5165L40.8147 21.8618C40.6617 20.9947 40.4331 20.1558 40.1389 19.3457L43.4113 14.3902L37.4938 14.7451C36.931 14.0763 36.3122 13.4575 35.6433 12.8947L35.9983 6.97713L31.0427 10.249C30.2332 9.95535 29.3943 9.72671 28.5266 9.57321L25.8719 4.26379Z" fill="#BA9B48"/>
<path d="M25.6509 12.298C22.2914 12.298 19.0694 13.6325 16.6939 16.0081C14.3183 18.3837 12.9838 21.6056 12.9838 24.9651C12.9838 28.3247 14.3183 31.5466 16.6939 33.9222C19.0694 36.2977 22.2914 37.6323 25.6509 37.6323C29.0105 37.6323 32.2324 36.2977 34.608 33.9222C36.9835 31.5466 38.3181 28.3247 38.3181 24.9651C38.3181 21.6056 36.9835 18.3837 34.608 16.0081C32.2324 13.6325 29.0105 12.298 25.6509 12.298Z" fill="#F5CE85"/>
</g>
</g>
<defs>
<filter id="filter0_i" x="0" y="0" width="100" height="51" filterUnits="userSpaceOnUse" color-interpolation-filters="sRGB">
<feFlood flood-opacity="0" result="BackgroundImageFix"/>
<feBlend mode="normal" in="SourceGraphic" in2="BackgroundImageFix" result="shape"/>
<feColorMatrix in="SourceAlpha" type="matrix" values="0 0 0 0 0 0 0 0 0 0 0 0 0 0 0 0 0 0 127 0" result="hardAlpha"/>
<feOffset dy="1"/>
<feGaussianBlur stdDeviation="5"/>
<feComposite in2="hardAlpha" operator="arithmetic" k2="-1" k3="1"/>
<feColorMatrix type="matrix" values="0 0 0 0 0.741667 0 0 0 0 0.741667 0 0 0 0 0.741667 0 0 0 1 0"/>
<feBlend mode="normal" in2="shape" result="effect1_innerShadow"/>
</filter>
<filter id="filter1_d" x="3.61914" y="0.263794" width="48.5055" height="48.5055" filterUnits="userSpaceOnUse" color-interpolation-filters="sRGB">
<feFlood flood-opacity="0" result="BackgroundImageFix"/>
<feColorMatrix in="SourceAlpha" type="matrix" values="0 0 0 0 0 0 0 0 0 0 0 0 0 0 0 0 0 0 127 0"/>
<feOffset dx="2"/>
<feGaussianBlur stdDeviation="2"/>
<feColorMatrix type="matrix" values="0 0 0 0 0.729412 0 0 0 0 0.607843 0 0 0 0 0.282353 0 0 0 1 0"/>
<feBlend mode="normal" in2="BackgroundImageFix" result="effect1_dropShadow"/>
<feBlend mode="normal" in="SourceGraphic" in2="effect1_dropShadow" result="shape"/>
</filter>
<clipPath id="clip0">
<rect width="100" height="50" fill="white" transform="translate(100 50) rotate(-180)"/>
</clipPath>
</defs>
</svg>
