<svg width="137" height="70" viewBox="0 0 137 70" fill="none" xmlns="http://www.w3.org/2000/svg">
<g clip-path="url(#clip0)">
<g filter="url(#filter0_i)">
<path d="M8.74467e-07 35C3.91512e-07 15.67 15.67 -3.91512e-07 35 -8.74467e-07L101.5 -2.53595e-06C120.83 -3.01891e-06 136.5 15.67 136.5 35V35C136.5 54.33 120.83 70 101.5 70L35 70C15.67 70 1.35742e-06 54.33 8.74467e-07 35V35Z" fill="#E5E5E5"/>
</g>
<path d="M35 0.499999L101.5 0.499997C120.554 0.499997 136 15.9462 136 35C136 54.0538 120.554 69.5 101.5 69.5L35 69.5C15.9462 69.5 0.500001 54.0538 0.500001 35C0.5 15.9462 15.9462 0.5 35 0.499999Z" stroke="#292525"/>
<g filter="url(#filter1_d)">
<path d="M32.0514 56.7113L31.854 56.677C30.6146 56.4581 29.3727 56.1246 28.1627 55.6852L27.9749 55.6175L21.0699 60.1765L21.5642 51.9334L21.4122 51.8044C20.4315 50.9781 19.5176 50.0642 18.6969 49.0883L18.5679 48.9354L10.324 49.4298L14.883 42.5256L14.8137 42.337C14.3743 41.1246 14.0408 39.8827 13.8226 38.6457L13.7876 38.4482L6.38989 34.7498L13.7876 31.0505L13.8226 30.8531C14.0408 29.616 14.3743 28.3742 14.8137 27.1618L14.8822 26.9739L10.324 20.0698L18.5671 20.5649L18.6961 20.4121C19.5176 19.4345 20.4315 18.5215 21.4114 17.6959L21.5635 17.567L21.0699 9.32307L27.9749 13.8821L28.1627 13.8144C29.3727 13.375 30.6146 13.0414 31.854 12.8225L32.0514 12.7883L35.7499 5.38977L39.4484 12.7875L39.6458 12.8217C40.8852 13.0406 42.1271 13.3742 43.3371 13.8136L43.5249 13.8813L50.4299 9.32227L49.9356 17.567L50.0876 17.6959C51.0675 18.5207 51.9814 19.4345 52.8029 20.4121L52.9319 20.5649L61.175 20.0698L56.616 26.9739L56.6845 27.1618C57.1239 28.3734 57.4575 29.616 57.6756 30.8531L57.7106 31.0505L65.1099 34.7498L57.7122 38.449L57.6772 38.6465C57.4591 39.8827 57.1255 41.1246 56.6861 42.3378L56.6176 42.5256L61.1766 49.4298L52.9335 48.9346L52.8045 49.0875C51.9838 50.0634 51.0699 50.9773 50.0892 51.8036L49.9371 51.9326L50.4315 60.1757L43.5265 55.6167L43.3387 55.6844C42.1287 56.1238 40.8868 56.4573 39.6474 56.6762L39.45 56.7105L35.7499 64.1098L32.0514 56.7113Z" fill="#FEFFB7"/>
<path d="M36.2501 5.77997L39.5036 12.2869L39.6827 12.6451L40.0767 12.7152C41.2939 12.9301 42.5135 13.2573 43.702 13.6888L44.0777 13.8249L44.4112 13.6044L50.4843 9.59466L50.0489 16.8443L50.025 17.2439L50.3307 17.501C51.2915 18.3098 52.1887 19.207 52.9983 20.1686L53.2554 20.4743L53.6542 20.4504L60.9039 20.015L56.8941 26.0881L56.6736 26.4216L56.8098 26.7981C57.2404 27.9867 57.5684 29.2062 57.7833 30.4226L57.8534 30.8166L58.2116 30.9957L64.7201 34.25L58.2132 37.5035L57.855 37.6826L57.7849 38.0766C57.57 39.293 57.2428 40.5125 56.8114 41.701L56.6752 42.0776L56.8957 42.4111L60.9055 48.4842L53.6558 48.0488L53.2562 48.0249L52.9991 48.3306C52.1911 49.2914 51.2931 50.1886 50.3315 50.9981L50.0258 51.2561L50.0497 51.6549L50.4851 58.9045L44.412 54.8948L44.0785 54.6743L43.702 54.8104C42.5135 55.2411 41.2939 55.5691 40.0767 55.784L39.6827 55.8541L39.5036 56.2123L36.2501 62.72L32.9966 56.2131L32.8175 55.8549L32.4235 55.7848C31.2063 55.5699 29.9868 55.2419 28.7983 54.8112L28.4217 54.6751L28.0882 54.8956L22.0151 58.9053L22.4505 51.6557L22.4744 51.2569L22.1687 50.9989C21.2071 50.1894 20.3092 49.2914 19.5012 48.3314L19.244 48.0257L18.8444 48.0496L11.5948 48.485L15.6045 42.4119L15.825 42.0784L15.6889 41.7018C15.2582 40.5133 14.9302 39.2938 14.7153 38.0774L14.6453 37.6834L14.287 37.5043L7.7801 34.25L14.287 30.9965L14.6453 30.8174L14.7153 30.4234C14.9302 29.2062 15.2574 27.9867 15.6889 26.7989L15.825 26.4224L15.6045 26.0889L11.5948 20.0158L18.8444 20.4512L19.2433 20.4751L19.5004 20.1694C20.3092 19.2078 21.2071 18.3106 22.1679 17.5018L22.4736 17.2447L22.4498 16.8451L22.0143 9.59545L28.0874 13.6052L28.4209 13.8257L28.7967 13.6896C29.9852 13.2589 31.2047 12.9309 32.4219 12.716L32.8159 12.6459L32.9951 12.2877L36.2501 5.77997ZM36.2501 4L32.285 11.9311C30.9898 12.1595 29.7368 12.5018 28.5268 12.9405L21.1251 8.0527L21.6561 16.8913C20.657 17.7319 19.7328 18.6561 18.8922 19.6552L10.0528 19.125L14.9398 26.5267C14.5012 27.7359 14.1597 28.9889 13.9304 30.2849L6.00012 34.25L13.9312 38.2151C14.1597 39.5103 14.5012 40.7633 14.9406 41.9725L10.0528 49.375L18.8914 48.8448C19.732 49.8439 20.657 50.7681 21.6553 51.6087L21.1251 60.4473L28.5268 55.5603C29.736 55.9989 30.9898 56.3405 32.285 56.5697L36.2501 64.5L40.2153 56.5689C41.5104 56.3405 42.7634 55.9981 43.9734 55.5595L51.3751 60.4473L50.8441 51.6087C51.8432 50.7681 52.7674 49.8439 53.608 48.8448L62.4474 49.375L57.5604 41.9733C57.9991 40.7641 58.3406 39.5111 58.5698 38.2159L66.5001 34.25L58.569 30.2849C58.3406 28.9897 57.9991 27.7367 57.5596 26.5267L62.4474 19.125L53.6088 19.6552C52.7682 18.6561 51.844 17.7319 50.8449 16.8913L51.3751 8.0527L43.9734 12.9397C42.7642 12.501 41.5112 12.1595 40.2153 11.9303L36.2501 4Z" fill="#BA9B48"/>
<path d="M35.9201 16C30.9022 16 26.0899 17.9934 22.5417 21.5415C18.9935 25.0897 17.0001 29.9021 17.0001 34.92C17.0001 39.9379 18.9935 44.7503 22.5417 48.2985C26.0899 51.8466 30.9022 53.84 35.9201 53.84C40.938 53.84 45.7504 51.8466 49.2986 48.2985C52.8468 44.7503 54.8401 39.9379 54.8401 34.92C54.8401 29.9021 52.8468 25.0897 49.2986 21.5415C45.7504 17.9934 40.938 16 35.9201 16Z" fill="#F5CE85"/>
</g>
</g>
<defs>
<filter id="filter0_i" x="0" y="0" width="136.5" height="71" filterUnits="userSpaceOnUse" color-interpolation-filters="sRGB">
<feFlood flood-opacity="0" result="BackgroundImageFix"/>
<feBlend mode="normal" in="SourceGraphic" in2="BackgroundImageFix" result="shape"/>
<feColorMatrix in="SourceAlpha" type="matrix" values="0 0 0 0 0 0 0 0 0 0 0 0 0 0 0 0 0 0 127 0" result="hardAlpha"/>
<feOffset dy="1"/>
<feGaussianBlur stdDeviation="5"/>
<feComposite in2="hardAlpha" operator="arithmetic" k2="-1" k3="1"/>
<feColorMatrix type="matrix" values="0 0 0 0 0.741667 0 0 0 0 0.741667 0 0 0 0 0.741667 0 0 0 1 0"/>
<feBlend mode="normal" in2="shape" result="effect1_innerShadow"/>
</filter>
<filter id="filter1_d" x="4.00012" y="0" width="68.5" height="68.5" filterUnits="userSpaceOnUse" color-interpolation-filters="sRGB">
<feFlood flood-opacity="0" result="BackgroundImageFix"/>
<feColorMatrix in="SourceAlpha" type="matrix" values="0 0 0 0 0 0 0 0 0 0 0 0 0 0 0 0 0 0 127 0"/>
<feOffset dx="2"/>
<feGaussianBlur stdDeviation="2"/>
<feColorMatrix type="matrix" values="0 0 0 0 0.729412 0 0 0 0 0.607843 0 0 0 0 0.282353 0 0 0 1 0"/>
<feBlend mode="normal" in2="BackgroundImageFix" result="effect1_dropShadow"/>
<feBlend mode="normal" in="SourceGraphic" in2="effect1_dropShadow" result="shape"/>
</filter>
<clipPath id="clip0">
<rect width="137" height="70" fill="white" transform="translate(137 70) rotate(-180)"/>
</clipPath>
</defs>
</svg>
