<svg width="106" height="106" viewBox="0 0 106 106" fill="none" xmlns="http://www.w3.org/2000/svg">
<path d="M106 20.3167C102.025 22.0833 98.05 23.4083 93.6333 23.85C98.05 21.2 101.583 16.7833 103.35 11.925C98.9333 14.575 94.5167 16.3417 89.6583 17.225C85.6833 12.8083 79.9417 10.1583 73.7583 10.1583C61.8333 10.1583 52.1167 19.875 52.1167 31.8C52.1167 33.5667 52.1167 35.3333 52.5583 36.6583C34.0083 35.775 18.1083 26.9417 7.06667 14.1333C5.3 17.225 4.41667 20.7583 4.41667 24.7333C4.41667 32.2417 8.39167 38.8667 14.1333 42.8417C10.6 42.8417 7.06667 41.9583 4.41667 40.1917V40.6333C4.41667 51.2333 11.925 60.0667 21.6417 61.8333C19.875 62.275 18.1083 62.7167 15.9 62.7167C14.575 62.7167 13.25 62.7167 11.925 62.275C14.575 71.1083 22.525 77.2917 32.2417 77.2917C24.7333 83.0333 15.4583 86.5667 5.3 86.5667C3.53333 86.5667 1.76667 86.5667 0 86.125C9.71667 92.3083 21.2 95.8417 33.5667 95.8417C73.7583 95.8417 95.4 62.7167 95.4 34.0083C95.4 33.125 95.4 32.2417 95.4 31.3583C99.375 28.2667 102.908 24.7333 106 20.3167Z" fill="#B7B7B7"/>
</svg>
