<svg width="255" height="182" viewBox="0 0 255 182" fill="none" xmlns="http://www.w3.org/2000/svg">
<path fill-rule="evenodd" clip-rule="evenodd" d="M216.016 0H182.24L237.461 78.6964L254.344 54.3529L216.016 0ZM180.407 0H129.201L192.594 89.901H229.691L236.55 80.0098L180.407 0ZM126.772 0H73.6559L73.6699 0.00968358L18.8503 79.0563L26.8346 89.9009L62.9454 89.9009L126.772 0ZM71.8512 0H37.9772L37.9884 0.00769731L0.608505 54.2796L17.9103 77.7795L71.8512 0ZM36.1723 0H0V52.5186L36.1723 0ZM0 55.9831V89.9009H9.50399L17.0068 79.0824L0 55.9831ZM0 91.4009V178.56L22.6381 146.674L9.67547 91.4009H0ZM0.407246 180.578H53.2004L109.034 102.729L100.938 91.4009H63.7201L0.407246 180.578ZM55.0463 180.578H89.1626L126.782 127.56L109.956 104.018L55.0463 180.578ZM91.0018 180.578H164.675L127.705 128.851L91.0018 180.578ZM166.519 180.578H199.402L145.003 104.472L128.623 127.557L166.519 180.578ZM201.245 180.578H254.698L191.816 91.401L154.278 91.4009L145.922 103.178L201.245 180.578ZM255 178.402V91.401H245.495L233.092 147.333L255 178.402ZM255 89.901V56.0391L238.379 80.0047L245.324 89.901H255ZM255 52.6804V0H217.852L255 52.6804ZM23.7962 145.043L11.2162 91.4009H26.0763L44.3036 116.158L23.7962 145.043ZM243.959 91.401H230.476L212.217 117.729L231.923 145.675L243.959 91.401ZM243.491 89.901H231.516L237.469 81.3181L243.491 89.901ZM193.652 91.401H228.651L211.297 116.424L193.652 91.401ZM173.106 64.8667L190.759 89.9009H155.343L173.106 64.8667ZM172.189 63.5666L153.503 89.9009H137.014L151.405 34.0921L172.189 63.5666ZM118.709 89.9009H135.465L150.271 32.4835L127.987 0.880755L105.52 32.5251L118.709 89.9009ZM104.358 34.1627L117.17 89.9009H101.71L83.1857 63.9835L104.358 34.1627ZM137.504 91.4009H152.439L144.999 101.887L137.504 91.4009ZM119.005 91.4009H135.66L144.08 103.181L127.7 126.266L110.879 102.731L119.005 91.4009ZM102.782 91.4009H117.159L109.958 101.441L102.782 91.4009ZM82.2669 65.2776L99.8658 89.9009H64.785L82.2669 65.2776ZM27.939 91.4009H61.8805L45.2181 114.87L27.939 91.4009ZM17.9468 80.3591L24.9719 89.9009H11.3294L17.9468 80.3591Z" fill="white"/>
</svg>
